<svg width="42" height="21" viewBox="0 0 42 21" fill="none" xmlns="http://www.w3.org/2000/svg">
<g clip-path="url(#clip0_262_384)">
<mask id="mask0_262_384" style="mask-type:luminance" maskUnits="userSpaceOnUse" x="0" y="0" width="42" height="21">
<path d="M41.5 0H0V21H41.5V0Z" fill="white"/>
</mask>
<g mask="url(#mask0_262_384)">
<path d="M25.18 11.86L23.16 10.62C21.89 9.84 20.99 9.07 20.45 8.32C19.91 7.57 19.64 6.7 19.64 5.71C19.64 4.24 20.15 3.04 21.16 2.12C22.18 1.2 23.5 0.740002 25.12 0.740002C26.67 0.740002 28.1 1.18 29.39 2.06V5.1C28.05 3.8 26.61 3.15 25.07 3.15C24.2 3.15 23.49 3.35 22.93 3.76C22.37 4.16 22.09 4.68 22.09 5.31C22.09 5.87 22.3 6.4 22.71 6.88C23.12 7.37 23.78 7.88 24.7 8.42L26.73 9.63C29 10.99 30.13 12.73 30.13 14.84C30.13 16.34 29.63 17.56 28.63 18.5C27.63 19.44 26.33 19.91 24.74 19.91C22.9 19.91 21.23 19.34 19.72 18.21V14.81C21.16 16.64 22.82 17.56 24.71 17.56C25.54 17.56 26.24 17.33 26.79 16.86C27.34 16.39 27.62 15.81 27.62 15.11C27.63 13.96 26.81 12.88 25.18 11.86Z" fill="#FF1744"/>
<path d="M34.58 19.91H28.29V0.75H33.16C34.69 0.75 35.89 0.96 36.75 1.39C37.61 1.82 38.27 2.4 38.72 3.15C39.17 3.9 39.4 4.76 39.4 5.74C39.4 7.62 38.46 8.97 36.57 9.79C37.93 10.06 39.01 10.63 39.81 11.52C40.61 12.41 41.01 13.47 41.01 14.7C41.01 15.68 40.77 16.55 40.28 17.32C39.79 18.09 39.08 18.71 38.13 19.2C37.18 19.69 36 19.91 34.58 19.91ZM33.23 3.19H30.94V8.95H32.71C34.13 8.95 35.14 8.67 35.74 8.11C36.34 7.55 36.64 6.83 36.64 5.94C36.64 4.11 35.5 3.19 33.23 3.19ZM33.43 11.39H30.94V17.47H33.56C35.01 17.47 36 17.35 36.52 17.12C37.04 16.89 37.46 16.52 37.77 16.03C38.08 15.54 38.24 15.01 38.24 14.44C38.24 13.86 38.07 13.32 37.74 12.83C37.41 12.35 36.94 11.98 36.32 11.75C35.72 11.51 34.75 11.39 33.43 11.39Z" fill="#FF1744"/>
<path d="M28.52 0.75H25.12L28.52 1.55" fill="#FF1744"/>
<path d="M28.38 0.75L25.5 8.11L20.87 19.91H20.28L14.21 4.39L8.06 19.91H7.49L0 0.75H2.68L7.8 13.9L12.96 0.75H15.48L20.66 13.9L23.46 6.63L25.73 0.75H28.38Z" fill="#6200EE"/>
<path d="M27.63 15.1C27.63 13.96 26.81 12.88 25.18 11.86L23.16 10.62C21.89 9.84 20.99 9.07 20.45 8.32C19.91 7.57 19.64 6.7 19.64 5.71L22.09 5.31C22.09 5.87 22.3 6.4 22.71 6.88C23.12 7.37 23.78 7.88 24.7 8.42L26.73 9.63C29 10.99 30.13 12.73 30.13 14.84" fill="#FF1744"/>
<path d="M24.74 19.91H28.52L28.63 18.51L24.74 19.91Z" fill="#FF1744"/>
</g>
</g>
<defs>
<clipPath id="clip0_262_384">
<rect width="42" height="21" fill="white"/>
</clipPath>
</defs>
</svg>
