<svg width="33" height="16" viewBox="0 0 33 16" fill="none" xmlns="http://www.w3.org/2000/svg">
<path d="M19.59 9.16L18.05 8.22C17.09 7.63 16.4 7.04 15.99 6.47C15.58 5.9 15.38 5.24 15.38 4.49C15.38 3.37 15.77 2.46 16.54 1.76C17.31 1.06 18.31 0.71 19.55 0.71C20.73 0.71 21.81 1.04 22.8 1.71V4.02C21.78 3.03 20.69 2.54 19.51 2.54C18.85 2.54 18.31 2.69 17.88 3C17.46 3.31 17.24 3.7 17.24 4.18C17.24 4.61 17.4 5 17.71 5.38C18.02 5.75 18.53 6.14 19.22 6.55L20.76 7.47C22.48 8.51 23.34 9.82 23.34 11.42C23.34 12.56 22.96 13.49 22.2 14.2C21.44 14.91 20.46 15.27 19.24 15.27C17.84 15.27 16.57 14.84 15.43 13.98V11.4C16.52 12.79 17.79 13.49 19.22 13.49C19.85 13.49 20.38 13.31 20.8 12.96C21.22 12.6 21.43 12.16 21.43 11.63C21.45 10.76 20.83 9.94 19.59 9.16Z" fill="#FF1744"/>
<path d="M26.73 15.28H21.95V0.72H25.65C26.82 0.72 27.73 0.88 28.38 1.2C29.03 1.52 29.53 1.97 29.88 2.53C30.22 3.1 30.4 3.75 30.4 4.49C30.4 5.92 29.68 6.95 28.25 7.56C29.28 7.76 30.1 8.2 30.71 8.87C31.32 9.54 31.63 10.35 31.63 11.29C31.63 12.03 31.44 12.7 31.07 13.28C30.7 13.86 30.15 14.34 29.44 14.71C28.7 15.1 27.81 15.28 26.73 15.28ZM25.71 2.57H23.97V6.95H25.31C26.39 6.95 27.16 6.74 27.61 6.31C28.06 5.89 28.29 5.34 28.29 4.66C28.3 3.27 27.43 2.57 25.71 2.57ZM25.86 8.81H23.97V13.43H25.96C27.07 13.43 27.82 13.34 28.21 13.16C28.6 12.98 28.92 12.71 29.16 12.33C29.4 11.95 29.52 11.55 29.52 11.12C29.52 10.68 29.39 10.27 29.14 9.9C28.89 9.53 28.53 9.26 28.06 9.08C27.6 8.9 26.86 8.81 25.86 8.81Z" fill="#FF1744"/>
<path d="M22.12 0.72H19.55L22.12 1.33" fill="#FF1744"/>
<path d="M22.02 0.72L19.83 6.31L16.31 15.28H15.87L11.25 3.49L6.57999 15.28H6.14999L0.459991 0.72H2.48999L6.38999 10.72L10.3 0.72H12.22L16.15 10.72L18.28 5.19L20 0.72H22.02Z" fill="#6200EE"/>
<path d="M21.45 11.63C21.45 10.76 20.83 9.94 19.59 9.17L18.05 8.23C17.09 7.64 16.4 7.05 15.99 6.48C15.58 5.91 15.38 5.25 15.38 4.5L17.24 4.2C17.24 4.63 17.4 5.02 17.71 5.4C18.02 5.77 18.53 6.16 19.22 6.57L20.76 7.49C22.48 8.53 23.34 9.84 23.34 11.44" fill="#FF1744"/>
<path d="M19.25 15.28H22.12L22.21 14.21L19.25 15.28Z" fill="#FF1744"/>
</svg>
